Coordinates
version=1
nRows=21
nColumns=12
inDegrees=yes

Units are S.I. units (second, meters, Newtons, ...)
Angles are in degrees

endheader
time	SC_y	SC_z	SC_x	AC_y	AC_z	AC_x	GH_y	GH_z	GH_yy	EL_x	PS_y
       0.0              -58.92          18.47          37.45          63.65          -14.1          18.94         -17.91          40.65         -162.5          15.94          144.0
   0.00906              -58.92          18.47          37.45          63.65          -14.1          18.94         -17.91          40.66         -162.4          15.94          144.0
   0.01812              -58.92          18.47          37.45          63.64         -14.09          18.94          -17.9          40.66         -162.4          15.94          144.0
   0.02718              -58.92          18.47          37.46          63.64         -14.09          18.94          -17.9          40.67         -162.4          15.94          144.0
   0.03624              -58.92          18.47          37.46          63.63         -14.09          18.94         -17.89          40.67         -162.4          15.95          143.9
    0.0453              -58.92          18.48          37.46          63.63         -14.09          18.94         -17.88          40.68         -162.4          15.95          143.9
   0.05436              -58.92          18.48          37.46          63.62         -14.09          18.94         -17.87          40.69         -162.4          15.95          143.9
   0.06342              -58.92          18.48          37.46          63.62         -14.09          18.94         -17.86          40.69         -162.4          15.96          143.9
   0.07248              -58.92          18.48          37.46          63.61         -14.09          18.94         -17.86           40.7         -162.4          15.96          143.8
   0.08154              -58.92          18.49          37.46          63.61         -14.09          18.93         -17.85          40.71         -162.3          15.97          143.8
    0.0906              -58.92          18.49          37.47           63.6         -14.09          18.93         -17.83          40.72         -162.3          15.97          143.8
   0.09966              -58.92          18.49          37.47          63.59         -14.08          18.93         -17.82          40.73         -162.3          15.97          143.7
    0.1087              -58.92           18.5          37.47          63.58         -14.08          18.93         -17.81          40.74         -162.3          15.98          143.7
    0.1178              -58.92           18.5          37.47          63.57         -14.08          18.93          -17.8          40.75         -162.3          15.99          143.7
    0.1268              -58.91           18.5          37.47          63.56         -14.08          18.93         -17.78          40.76         -162.2          15.99          143.6
    0.1359              -58.91          18.51          37.48          63.55         -14.08          18.93         -17.77          40.77         -162.2           16.0          143.6
     0.145              -58.91          18.51          37.48          63.54         -14.07          18.92         -17.75          40.79         -162.2          16.01          143.5
     0.154              -58.91          18.52          37.48          63.53         -14.07          18.92         -17.73           40.8         -162.2          16.01          143.5
    0.1631              -58.91          18.52          37.48          63.52         -14.07          18.92         -17.71          40.82         -162.1          16.02          143.4
    0.1721              -58.91          18.53          37.49           63.5         -14.07          18.92         -17.69          40.83         -162.1          16.03          143.4
    0.1812              -58.91          18.54          37.49          63.49         -14.06          18.92         -17.66          40.85         -162.0          16.04          143.3
